font.ufo
<glyph name="exclam" format="2">
  <advance width="317"/>
  <unicode hex="0021"/>
  <outline>
    <contour>
      <point x="77" y="246" type="line"/>
      <point x="240" y="246" type="line"/>
      <point x="240" y="730" type="line"/>
      <point x="77" y="730" type="line"/>
    </contour>
    <contour>
      <point x="65" y="0" type="line"/>
      <point x="252" y="0" type="line"/>
      <point x="252" y="161" type="line"/>
      <point x="65" y="161" type="line"/>
    </contour>
  </outline>
</glyph>
<glyph name="quotesingle" format="2">
  <advance width="268"/>
  <unicode hex="0027"/>
  <outline>
    <contour>
      <point x="62" y="421" type="line"/>
      <point x="206" y="421" type="line"/>
      <point x="206" y="730" type="line"/>
      <point x="62" y="730" type="line"/>
    </contour>
  </outline>
</glyph>
<glyph name="comma" format="2">
  <advance width="272"/>
  <unicode hex="002C"/>
  <outline>
    <contour>
      <point x="130" y="-171" type="line"/>
      <point x="247" y="133" type="line"/>
      <point x="112" y="182" type="line"/>
      <point x="7" y="-124" type="line"/>
    </contour>
  </outline>
</glyph>
<glyph name="period" format="2">
  <advance width="272"/>
  <unicode hex="002E"/>
  <outline>
    <contour>
      <point x="48" y="0" type="line"/>
      <point x="224" y="0" type="line"/>
      <point x="224" y="179" type="line"/>
      <point x="48" y="179" type="line"/>
    </contour>
  </outline>
</glyph>
<glyph name="one" format="2">
  <advance width="427"/>
  <unicode hex="0031"/>
  <outline>
    <contour>
      <point x="176" y="0" type="line"/>
      <point x="339" y="0" type="line"/>
      <point x="339" y="730" type="line"/>
      <point x="33" y="730" type="line"/>
      <point x="33" y="588" type="line"/>
      <point x="220" y="588" type="line"/>
      <point x="176" y="622" type="line"/>
    </contour>
  </outline>
</glyph>
<glyph name="seven" format="2">
  <advance width="607"/>
  <unicode hex="0037"/>
  <outline>
    <contour>
      <point x="143" y="0" type="line"/>
      <point x="316" y="0" type="line"/>
      <point x="586" y="626" type="line"/>
      <point x="586" y="730" type="line"/>
      <point x="33" y="730" type="line"/>
      <point x="33" y="596" type="line"/>
      <point x="388" y="596" type="line"/>
      <point x="399" y="581" type="line"/>
    </contour>
    <contour>
      <point x="33" y="478" type="line"/>
      <point x="165" y="478" type="line"/>
      <point x="165" y="730" type="line"/>
      <point x="33" y="730" type="line"/>
    </contour>
  </outline>
</glyph>
<glyph name="eight" format="2">
  <advance width="667"/>
  <unicode hex="0038"/>
  <outline>
    <contour>
      <point x="333" y="-21" type="curve" smooth="yes"/>
      <point x="509" y="-21"/>
      <point x="626" y="59"/>
      <point x="626" y="203" type="curve" smooth="yes"/>
      <point x="626" y="294"/>
      <point x="577" y="357"/>
      <point x="502" y="384" type="curve"/>
      <point x="502" y="396" type="line"/>
      <point x="561" y="420"/>
      <point x="603" y="470"/>
      <point x="603" y="550" type="curve" smooth="yes"/>
      <point x="603" y="684"/>
      <point x="488" y="751"/>
      <point x="333" y="751" type="curve" smooth="yes"/>
      <point x="179" y="751"/>
      <point x="63" y="684"/>
      <point x="63" y="550" type="curve" smooth="yes"/>
      <point x="63" y="470"/>
      <point x="105" y="420"/>
      <point x="163" y="396" type="curve"/>
      <point x="163" y="384" type="line"/>
      <point x="89" y="357"/>
      <point x="41" y="294"/>
      <point x="41" y="203" type="curve" smooth="yes"/>
      <point x="41" y="59"/>
      <point x="157" y="-21"/>
    </contour>
    <contour>
      <point x="333" y="113" type="curve" smooth="yes"/>
      <point x="252" y="113"/>
      <point x="199" y="150"/>
      <point x="199" y="221" type="curve" smooth="yes"/>
      <point x="199" y="292"/>
      <point x="252" y="329"/>
      <point x="333" y="329" type="curve" smooth="yes"/>
      <point x="415" y="329"/>
      <point x="468" y="292"/>
      <point x="468" y="221" type="curve" smooth="yes"/>
      <point x="468" y="150"/>
      <point x="414" y="113"/>
    </contour>
    <contour>
      <point x="333" y="449" type="curve" smooth="yes"/>
      <point x="264" y="449"/>
      <point x="221" y="478"/>
      <point x="221" y="534" type="curve" smooth="yes"/>
      <point x="221" y="588"/>
      <point x="263" y="617"/>
      <point x="333" y="617" type="curve" smooth="yes"/>
      <point x="402" y="617"/>
      <point x="445" y="589"/>
      <point x="445" y="534" type="curve" smooth="yes"/>
      <point x="445" y="478"/>
      <point x="403" y="449"/>
    </contour>
  </outline>
</glyph>
<glyph name="F" format="2">
  <advance width="560"/>
  <unicode hex="0046"/>
  <outline>
    <contour>
      <point x="82" y="0" type="line"/>
      <point x="246" y="0" type="line"/>
      <point x="246" y="730" type="line"/>
      <point x="82" y="730" type="line"/>
    </contour>
    <contour>
      <point x="226" y="294" type="line"/>
      <point x="507" y="294" type="line"/>
      <point x="507" y="430" type="line"/>
      <point x="226" y="429" type="line"/>
    </contour>
    <contour>
      <point x="226" y="594" type="line"/>
      <point x="520" y="594" type="line"/>
      <point x="520" y="730" type="line"/>
      <point x="226" y="730" type="line"/>
    </contour>
  </outline>
</glyph>
<glyph name="G" format="2">
  <advance width="832"/>
  <unicode hex="0047"/>
  <anchor x="430" y="0" name="bottom"/>
  <anchor x="410" y="730" name="top"/>
  <outline>
    <contour>
      <point x="428" y="-19" type="curve" smooth="yes"/>
      <point x="572" y="-19"/>
      <point x="686" y="37"/>
      <point x="748" y="137" type="curve"/>
      <point x="748" y="293" type="line"/>
      <point x="598" y="293" type="line"/>
      <point x="598" y="120" type="line"/>
      <point x="618" y="232" type="line"/>
      <point x="589" y="171"/>
      <point x="519" y="130"/>
      <point x="428" y="130" type="curve" smooth="yes"/>
      <point x="289" y="130"/>
      <point x="208" y="224"/>
      <point x="208" y="367" type="curve" smooth="yes"/>
      <point x="208" y="504"/>
      <point x="284" y="599"/>
      <point x="412" y="599" type="curve" smooth="yes"/>
      <point x="511" y="599"/>
      <point x="586" y="545"/>
      <point x="598" y="465" type="curve"/>
      <point x="762" y="465" type="line"/>
      <point x="746" y="634"/>
      <point x="608" y="751"/>
      <point x="412" y="751" type="curve" smooth="yes"/>
      <point x="169" y="751"/>
      <point x="43" y="563"/>
      <point x="43" y="379" type="curve" smooth="yes"/>
      <point x="43" y="357" type="line" smooth="yes"/>
      <point x="43" y="175"/>
      <point x="166" y="-19"/>
    </contour>
    <contour>
      <point x="407" y="262" type="line"/>
      <point x="809" y="262" type="line"/>
      <point x="809" y="379" type="line"/>
      <point x="407" y="379" type="line"/>
    </contour>
  </outline>
</glyph>
<glyph name="L" format="2">
  <advance width="557"/>
  <unicode hex="004C"/>
  <anchor x="307" y="0" name="bottom"/>
  <anchor x="164" y="365" name="center"/>
  <anchor x="164" y="730" name="top"/>
  <anchor x="276" y="541" name="topright"/>
  <outline>
    <contour>
      <point x="82" y="0" type="line"/>
      <point x="246" y="0" type="line"/>
      <point x="246" y="730" type="line"/>
      <point x="82" y="730" type="line"/>
    </contour>
    <contour>
      <point x="226" y="0" type="line"/>
      <point x="531" y="0" type="line"/>
      <point x="531" y="143" type="line"/>
      <point x="226" y="143" type="line"/>
    </contour>
  </outline>
</glyph>
<glyph name="O" format="2">
  <advance width="865"/>
  <unicode hex="004F"/>
  <anchor x="432" y="0" name="bottom"/>
  <anchor x="432" y="355" name="center"/>
  <anchor x="562" y="10" name="ogonek"/>
  <anchor x="432" y="730" name="top"/>
  <outline>
    <contour>
      <point x="432" y="-19" type="curve" smooth="yes"/>
      <point x="696" y="-19"/>
      <point x="822" y="192"/>
      <point x="822" y="356" type="curve" smooth="yes"/>
      <point x="822" y="378" type="line" smooth="yes"/>
      <point x="822" y="559"/>
      <point x="688" y="751"/>
      <point x="432" y="751" type="curve" smooth="yes"/>
      <point x="175" y="751"/>
      <point x="43" y="559"/>
      <point x="43" y="378" type="curve" smooth="yes"/>
      <point x="43" y="356" type="line" smooth="yes"/>
      <point x="43" y="192"/>
      <point x="168" y="-19"/>
    </contour>
    <contour>
      <point x="432" y="133" type="curve" smooth="yes"/>
      <point x="293" y="133"/>
      <point x="208" y="237"/>
      <point x="208" y="366" type="curve" smooth="yes"/>
      <point x="208" y="502"/>
      <point x="294" y="599"/>
      <point x="432" y="599" type="curve" smooth="yes"/>
      <point x="570" y="599"/>
      <point x="656" y="502"/>
      <point x="656" y="366" type="curve" smooth="yes"/>
      <point x="656" y="237"/>
      <point x="571" y="133"/>
    </contour>
  </outline>
</glyph>
<glyph name="Q" format="2">
  <advance width="865"/>
  <unicode hex="0051"/>
  <guideline x="431" y="360" angle="90.0"/>
  <anchor x="432" y="0" name="bottom"/>
  <anchor x="432" y="355" name="center"/>
  <anchor x="562" y="10" name="ogonek"/>
  <anchor x="432" y="730" name="top"/>
  <outline>
    <contour>
      <point x="575" y="-218" type="curve" smooth="yes"/>
      <point x="676" y="-218" type="line"/>
      <point x="676" y="-91" type="line"/>
      <point x="567" y="-91" type="line" smooth="yes"/>
      <point x="529" y="-91"/>
      <point x="505" y="-71"/>
      <point x="505" y="-31" type="curve" smooth="yes"/>
      <point x="505" y="87" type="line"/>
      <point x="353" y="87" type="line"/>
      <point x="353" y="-25" type="line" smooth="yes"/>
      <point x="353" y="-181"/>
      <point x="440" y="-218"/>
    </contour>
    <component base="O"/>
  </outline>
</glyph>
<glyph name="T" format="2">
  <advance width="618"/>
  <unicode hex="0054"/>
  <anchor x="309" y="0" name="bottom"/>
  <anchor x="309" y="365" name="center"/>
  <anchor x="309" y="730" name="top"/>
  <outline>
    <contour>
      <point x="227" y="0" type="line"/>
      <point x="391" y="0" type="line"/>
      <point x="391" y="607" type="line"/>
      <point x="227" y="607" type="line"/>
    </contour>
    <contour>
      <point x="22" y="587" type="line"/>
      <point x="596" y="587" type="line"/>
      <point x="596" y="730" type="line"/>
      <point x="22" y="730" type="line"/>
    </contour>
  </outline>
</glyph>
<glyph name="W" format="2">
  <advance width="1071"/>
  <unicode hex="0057"/>
  <anchor x="541" y="0" name="bottom"/>
  <anchor x="536" y="730" name="top"/>
  <outline>
    <contour>
      <point x="201" y="0" type="line"/>
      <point x="450" y="0" type="line"/>
      <point x="592" y="703" type="line"/>
      <point x="457" y="703" type="line"/>
      <point x="347" y="109" type="line"/>
      <point x="387" y="133" type="line"/>
      <point x="296" y="133" type="line"/>
      <point x="331" y="109" type="line"/>
      <point x="190" y="730" type="line"/>
      <point x="21" y="730" type="line"/>
    </contour>
    <contour>
      <point x="636" y="0" type="line"/>
      <point x="890" y="0" type="line"/>
      <point x="1049" y="730" type="line"/>
      <point x="890" y="730" type="line"/>
      <point x="767" y="109" type="line"/>
      <point x="800" y="133" type="line"/>
      <point x="712" y="133" type="line"/>
      <point x="751" y="109" type="line"/>
      <point x="625" y="703" type="line"/>
      <point x="482" y="703" type="line"/>
    </contour>
  </outline>
</glyph>
<glyph name="Z" format="2">
  <advance width="647"/>
  <unicode hex="005A"/>
  <anchor x="328" y="0" name="bottom"/>
  <anchor x="320" y="365" name="center"/>
  <anchor x="329" y="730" name="top"/>
  <outline>
    <contour>
      <point x="38" y="0" type="line"/>
      <point x="612" y="0" type="line"/>
      <point x="612" y="134" type="line"/>
      <point x="236" y="134" type="line"/>
      <point x="260" y="115" type="line"/>
      <point x="226" y="160" type="line"/>
      <point x="230" y="139" type="line"/>
      <point x="611" y="607" type="line"/>
      <point x="611" y="730" type="line"/>
      <point x="51" y="730" type="line"/>
      <point x="51" y="596" type="line"/>
      <point x="411" y="596" type="line"/>
      <point x="390" y="614" type="line"/>
      <point x="422" y="572" type="line"/>
      <point x="418" y="591" type="line"/>
      <point x="38" y="123" type="line"/>
    </contour>
  </outline>
</glyph>
<glyph name="backslash" format="2">
  <advance width="407"/>
  <unicode hex="005C"/>
  <outline>
    <contour>
      <point x="232" y="-60" type="line"/>
      <point x="393" y="-60" type="line"/>
      <point x="174" y="780" type="line"/>
      <point x="13" y="780" type="line"/>
    </contour>
  </outline>
</glyph>
<glyph name="underscore" format="2">
  <advance width="589"/>
  <unicode hex="005F"/>
  <outline>
    <contour>
      <point x="0" y="-171" type="line"/>
      <point x="589" y="-171" type="line"/>
      <point x="589" y="-51" type="line"/>
      <point x="0" y="-51" type="line"/>
    </contour>
  </outline>
</glyph>
<glyph name="b" format="2">
  <advance width="703"/>
  <unicode hex="0062"/>
  <outline>
    <contour>
      <point x="410" y="-18" type="curve" smooth="yes"/>
      <point x="567" y="-18"/>
      <point x="665" y="105"/>
      <point x="665" y="264" type="curve" smooth="yes"/>
      <point x="665" y="286" type="line" smooth="yes"/>
      <point x="665" y="445"/>
      <point x="568" y="564"/>
      <point x="418" y="564" type="curve" smooth="yes"/>
      <point x="290" y="564"/>
      <point x="200" y="476"/>
      <point x="194" y="311" type="curve"/>
      <point x="233" y="359" type="line"/>
      <point x="233" y="730" type="line"/>
      <point x="73" y="730" type="line"/>
      <point x="73" y="0" type="line"/>
      <point x="199" y="0" type="line"/>
      <point x="199" y="225" type="line"/>
      <point x="181" y="225" type="line"/>
      <point x="185" y="69"/>
      <point x="274" y="-18"/>
    </contour>
    <contour>
      <point x="368" y="115" type="curve" smooth="yes"/>
      <point x="299" y="115"/>
      <point x="229" y="165"/>
      <point x="229" y="251" type="curve" smooth="yes"/>
      <point x="229" y="288" type="line" smooth="yes"/>
      <point x="229" y="378"/>
      <point x="294" y="431"/>
      <point x="368" y="431" type="curve" smooth="yes"/>
      <point x="450" y="431"/>
      <point x="505" y="369"/>
      <point x="505" y="275" type="curve" smooth="yes"/>
      <point x="505" y="181"/>
      <point x="449" y="115"/>
    </contour>
  </outline>
</glyph>
<glyph name="e" format="2">
  <advance width="624"/>
  <unicode hex="0065"/>
  <anchor x="323" y="0" name="bottom"/>
  <anchor x="515" y="63" name="ogonek"/>
  <anchor x="317" y="547" name="top"/>
  <outline>
    <contour>
      <point x="323" y="-19" type="curve" smooth="yes"/>
      <point x="461" y="-19"/>
      <point x="557" y="58"/>
      <point x="581" y="170" type="curve"/>
      <point x="434" y="170" type="line"/>
      <point x="422" y="135"/>
      <point x="382" y="111"/>
      <point x="323" y="111" type="curve" smooth="yes"/>
      <point x="229" y="111"/>
      <point x="187" y="175"/>
      <point x="187" y="273" type="curve" smooth="yes"/>
      <point x="187" y="378"/>
      <point x="234" y="437"/>
      <point x="317" y="437" type="curve" smooth="yes"/>
      <point x="400" y="437"/>
      <point x="442" y="379"/>
      <point x="442" y="281" type="curve"/>
      <point x="494" y="323" type="line"/>
      <point x="106" y="323" type="line"/>
      <point x="106" y="232" type="line"/>
      <point x="590" y="232" type="line"/>
      <point x="590" y="286" type="line" smooth="yes"/>
      <point x="590" y="434"/>
      <point x="493" y="567"/>
      <point x="317" y="567" type="curve" smooth="yes"/>
      <point x="138" y="567"/>
      <point x="39" y="430"/>
      <point x="39" y="283" type="curve" smooth="yes"/>
      <point x="39" y="264" type="line" smooth="yes"/>
      <point x="39" y="123"/>
      <point x="137" y="-19"/>
    </contour>
  </outline>
</glyph>
<glyph name="f" format="2">
  <advance width="382"/>
  <unicode hex="0066"/>
  <outline>
    <contour>
      <point x="85" y="0" type="line"/>
      <point x="234" y="0" type="line"/>
      <point x="234" y="563" type="line" smooth="yes"/>
      <point x="234" y="599"/>
      <point x="254" y="620"/>
      <point x="291" y="620" type="curve" smooth="yes"/>
      <point x="367" y="620" type="line"/>
      <point x="367" y="740" type="line"/>
      <point x="298" y="740" type="line" smooth="yes"/>
      <point x="157" y="740"/>
      <point x="85" y="679"/>
      <point x="85" y="553" type="curve" smooth="yes"/>
    </contour>
    <contour>
      <point x="20" y="420" type="line"/>
      <point x="376" y="420" type="line"/>
      <point x="376" y="537" type="line"/>
      <point x="20" y="537" type="line"/>
    </contour>
  </outline>
</glyph>
<glyph name="h" format="2">
  <advance width="652"/>
  <unicode hex="0068"/>
  <anchor x="331" y="0" name="bottom"/>
  <anchor x="198" y="638" name="center"/>
  <anchor x="153" y="730" name="top"/>
  <outline>
    <contour>
      <point x="73" y="0" type="line"/>
      <point x="233" y="0" type="line"/>
      <point x="233" y="316" type="line" smooth="yes"/>
      <point x="233" y="379"/>
      <point x="273" y="422"/>
      <point x="333" y="422" type="curve" smooth="yes"/>
      <point x="390" y="422"/>
      <point x="429" y="382"/>
      <point x="429" y="322" type="curve" smooth="yes"/>
      <point x="429" y="0" type="line"/>
      <point x="589" y="0" type="line"/>
      <point x="589" y="312" type="line" smooth="yes"/>
      <point x="589" y="477"/>
      <point x="523" y="565"/>
      <point x="401" y="565" type="curve" smooth="yes"/>
      <point x="394" y="565" type="line" smooth="yes"/>
      <point x="271" y="565"/>
      <point x="209" y="474"/>
      <point x="209" y="309" type="curve"/>
      <point x="233" y="309" type="line"/>
      <point x="233" y="730" type="line"/>
      <point x="73" y="730" type="line"/>
    </contour>
  </outline>
</glyph>
<glyph name="l" format="2">
  <advance width="314"/>
  <unicode hex="006C"/>
  <anchor x="160" y="0" name="bottom"/>
  <anchor x="160" y="480" name="center"/>
  <anchor x="133" y="730" name="top"/>
  <anchor x="228" y="534" name="topright"/>
  <outline>
    <contour>
      <point x="80" y="0" type="line"/>
      <point x="240" y="0" type="line"/>
      <point x="240" y="730" type="line"/>
      <point x="80" y="730" type="line"/>
    </contour>
    <contour>
      <point x="15" y="612" type="line"/>
      <point x="240" y="612" type="line"/>
      <point x="240" y="730" type="line"/>
      <point x="15" y="730" type="line"/>
    </contour>
  </outline>
</glyph>
<glyph name="m" format="2">
  <advance width="983"/>
  <unicode hex="006D"/>
  <outline>
    <contour>
      <point x="73" y="0" type="line"/>
      <point x="233" y="0" type="line"/>
      <point x="233" y="318" type="line" smooth="yes"/>
      <point x="233" y="380"/>
      <point x="268" y="422"/>
      <point x="326" y="422" type="curve" smooth="yes"/>
      <point x="384" y="422"/>
      <point x="416" y="381"/>
      <point x="416" y="321" type="curve" smooth="yes"/>
      <point x="416" y="0" type="line"/>
      <point x="576" y="0" type="line"/>
      <point x="576" y="318" type="line" smooth="yes"/>
      <point x="576" y="380"/>
      <point x="612" y="422"/>
      <point x="670" y="422" type="curve" smooth="yes"/>
      <point x="727" y="422"/>
      <point x="760" y="381"/>
      <point x="760" y="321" type="curve" smooth="yes"/>
      <point x="760" y="0" type="line"/>
      <point x="920" y="0" type="line"/>
      <point x="920" y="312" type="line" smooth="yes"/>
      <point x="920" y="479"/>
      <point x="853" y="565"/>
      <point x="729" y="565" type="curve" smooth="yes"/>
      <point x="722" y="565" type="line" smooth="yes"/>
      <point x="598" y="565"/>
      <point x="534" y="479"/>
      <point x="534" y="312" type="curve"/>
      <point x="572" y="312" type="line"/>
      <point x="572" y="479"/>
      <point x="508" y="565"/>
      <point x="385" y="565" type="curve" smooth="yes"/>
      <point x="378" y="565" type="line" smooth="yes"/>
      <point x="254" y="565"/>
      <point x="190" y="479"/>
      <point x="190" y="312" type="curve"/>
      <point x="199" y="312" type="line"/>
      <point x="199" y="547" type="line"/>
      <point x="73" y="547" type="line"/>
    </contour>
  </outline>
</glyph>
<glyph name="n" format="2">
  <advance width="652"/>
  <unicode hex="006E"/>
  <anchor x="331" y="0" name="bottom"/>
  <anchor x="333" y="547" name="top"/>
  <outline>
    <contour>
      <point x="73" y="0" type="line"/>
      <point x="233" y="0" type="line"/>
      <point x="233" y="319" type="line" smooth="yes"/>
      <point x="233" y="380"/>
      <point x="273" y="422"/>
      <point x="333" y="422" type="curve" smooth="yes"/>
      <point x="392" y="422"/>
      <point x="429" y="381"/>
      <point x="429" y="322" type="curve" smooth="yes"/>
      <point x="429" y="0" type="line"/>
      <point x="589" y="0" type="line"/>
      <point x="589" y="313" type="line" smooth="yes"/>
      <point x="589" y="482"/>
      <point x="519" y="565"/>
      <point x="391" y="565" type="curve" smooth="yes"/>
      <point x="385" y="565" type="line" smooth="yes"/>
      <point x="257" y="565"/>
      <point x="190" y="481"/>
      <point x="190" y="312" type="curve"/>
      <point x="199" y="312" type="line"/>
      <point x="199" y="547" type="line"/>
      <point x="73" y="547" type="line"/>
    </contour>
  </outline>
</glyph>
<glyph name="o" format="2">
  <advance width="680"/>
  <unicode hex="006F"/>
  <note>
o
</note>
  <anchor x="340" y="0" name="bottom"/>
  <anchor x="340" y="267" name="center"/>
  <anchor x="457" y="11" name="ogonek"/>
  <anchor x="340" y="547" name="top"/>
  <outline>
    <contour>
      <point x="340" y="-19" type="curve" smooth="yes"/>
      <point x="533" y="-19"/>
      <point x="642" y="112"/>
      <point x="642" y="261" type="curve" smooth="yes"/>
      <point x="642" y="283" type="line" smooth="yes"/>
      <point x="642" y="438"/>
      <point x="526" y="567"/>
      <point x="340" y="567" type="curve" smooth="yes"/>
      <point x="154" y="567"/>
      <point x="39" y="438"/>
      <point x="39" y="283" type="curve" smooth="yes"/>
      <point x="39" y="261" type="line" smooth="yes"/>
      <point x="39" y="112"/>
      <point x="148" y="-19"/>
    </contour>
    <contour>
      <point x="340" y="116" type="curve" smooth="yes"/>
      <point x="248" y="116"/>
      <point x="199" y="182"/>
      <point x="199" y="272" type="curve" smooth="yes"/>
      <point x="199" y="365"/>
      <point x="251" y="432"/>
      <point x="340" y="432" type="curve" smooth="yes"/>
      <point x="430" y="432"/>
      <point x="482" y="365"/>
      <point x="482" y="272" type="curve" smooth="yes"/>
      <point x="482" y="182"/>
      <point x="433" y="116"/>
    </contour>
  </outline>
</glyph>
<glyph name="t" format="2">
  <advance width="433"/>
  <unicode hex="0074"/>
  <anchor x="246" y="0" name="bottom"/>
  <anchor x="199" y="290" name="center"/>
  <anchor x="165" y="696" name="top"/>
  <anchor x="233" y="576" name="topright"/>
  <outline>
    <contour>
      <point x="322" y="-7" type="curve" smooth="yes"/>
      <point x="398" y="-7" type="line"/>
      <point x="398" y="128" type="line"/>
      <point x="318" y="128" type="line" smooth="yes"/>
      <point x="267" y="128"/>
      <point x="238" y="156"/>
      <point x="238" y="207" type="curve" smooth="yes"/>
      <point x="239" y="696" type="line"/>
      <point x="90" y="696" type="line"/>
      <point x="90" y="214" type="line" smooth="yes"/>
      <point x="90" y="48"/>
      <point x="157" y="-7"/>
    </contour>
    <contour>
      <point x="7" y="431" type="line"/>
      <point x="398" y="431" type="line"/>
      <point x="398" y="547" type="line"/>
      <point x="7" y="547" type="line"/>
    </contour>
  </outline>
</glyph>
<glyph name="u" format="2">
  <advance width="644"/>
  <unicode hex="0075"/>
  <anchor x="565" y="10" name="ogonek"/>
  <anchor x="315" y="547" name="top"/>
  <outline>
    <contour>
      <point x="258" y="-17" type="curve" smooth="yes"/>
      <point x="265" y="-17" type="line" smooth="yes"/>
      <point x="389" y="-17"/>
      <point x="454" y="64"/>
      <point x="454" y="231" type="curve"/>
      <point x="443" y="231" type="line"/>
      <point x="443" y="0" type="line"/>
      <point x="570" y="0" type="line"/>
      <point x="570" y="548" type="line"/>
      <point x="410" y="548" type="line"/>
      <point x="410" y="226" type="line" smooth="yes"/>
      <point x="410" y="164"/>
      <point x="370" y="126"/>
      <point x="313" y="126" type="curve" smooth="yes"/>
      <point x="257" y="126"/>
      <point x="221" y="163"/>
      <point x="221" y="222" type="curve" smooth="yes"/>
      <point x="221" y="548" type="line"/>
      <point x="61" y="548" type="line"/>
      <point x="61" y="230" type="line" smooth="yes"/>
      <point x="61" y="64"/>
      <point x="132" y="-17"/>
    </contour>
  </outline>
</glyph>
<glyph name="w" format="2">
  <advance width="921"/>
  <unicode hex="0077"/>
  <anchor x="466" y="0" name="bottom"/>
  <anchor x="461" y="547" name="top"/>
  <outline>
    <contour>
      <point x="273" y="0" type="line"/>
      <point x="386" y="0" type="line"/>
      <point x="493" y="526" type="line"/>
      <point x="422" y="526" type="line"/>
      <point x="540" y="0" type="line"/>
      <point x="664" y="0" type="line"/>
      <point x="549" y="529" type="line"/>
      <point x="374" y="529" type="line"/>
    </contour>
    <contour>
      <point x="235" y="0" type="line"/>
      <point x="346" y="0" type="line"/>
      <point x="345" y="133" type="line"/>
      <point x="235" y="133" type="line"/>
    </contour>
    <contour>
      <point x="164" y="0" type="line"/>
      <point x="310" y="0" type="line"/>
      <point x="173" y="547" type="line"/>
      <point x="17" y="547" type="line"/>
    </contour>
    <contour>
      <point x="582" y="0" type="line"/>
      <point x="692" y="0" type="line"/>
      <point x="693" y="133" type="line"/>
      <point x="583" y="133" type="line"/>
    </contour>
    <contour>
      <point x="626" y="0" type="line"/>
      <point x="763" y="0" type="line"/>
      <point x="895" y="547" type="line"/>
      <point x="749" y="547" type="line"/>
    </contour>
  </outline>
</glyph>
<glyph name="y" format="2">
  <advance width="569"/>
  <unicode hex="0079"/>
  <anchor x="287" y="547" name="top"/>
  <outline>
    <contour>
      <point x="66" y="-217" type="line"/>
      <point x="164" y="-217" type="line" smooth="yes"/>
      <point x="310" y="-217"/>
      <point x="372" y="-173"/>
      <point x="405" y="-44" type="curve" smooth="yes"/>
      <point x="559" y="547" type="line"/>
      <point x="407" y="547" type="line"/>
      <point x="271" y="-12" type="line" smooth="yes"/>
      <point x="258" y="-65"/>
      <point x="232" y="-82"/>
      <point x="181" y="-82" type="curve" smooth="yes"/>
      <point x="66" y="-82" type="line"/>
    </contour>
    <contour>
      <point x="238" y="12" type="line"/>
      <point x="354" y="12" type="line"/>
      <point x="354" y="137" type="line"/>
      <point x="238" y="137" type="line"/>
    </contour>
    <contour>
      <point x="173" y="12" type="line"/>
      <point x="324" y="12" type="line"/>
      <point x="165" y="547" type="line"/>
      <point x="5" y="547" type="line"/>
    </contour>
  </outline>
</glyph>
<glyph name="z" format="2">
  <advance width="501"/>
  <unicode hex="007A"/>
  <anchor x="257" y="0" name="bottom"/>
  <anchor x="254" y="267" name="center"/>
  <anchor x="250" y="547" name="top"/>
  <outline>
    <contour>
      <point x="37" y="0" type="line"/>
      <point x="477" y="0" type="line"/>
      <point x="477" y="122" type="line"/>
      <point x="217" y="122" type="line"/>
      <point x="235" y="112" type="line"/>
      <point x="211" y="143" type="line"/>
      <point x="211" y="127" type="line"/>
      <point x="468" y="436" type="line"/>
      <point x="468" y="547" type="line"/>
      <point x="38" y="547" type="line"/>
      <point x="38" y="425" type="line"/>
      <point x="289" y="425" type="line"/>
      <point x="270" y="434" type="line"/>
      <point x="294" y="404" type="line"/>
      <point x="294" y="420" type="line"/>
      <point x="37" y="111" type="line"/>
    </contour>
  </outline>
</glyph>
<glyph name="braceleft" format="2">
  <advance width="392"/>
  <unicode hex="007B"/>
  <guideline x="10" y="297" angle="0.0"/>
  <guideline y="-182"/>
  <outline>
    <contour>
      <point x="332" y="-182" type="curve" smooth="yes"/>
      <point x="357" y="-182" type="line"/>
      <point x="357" y="-49" type="line"/>
      <point x="332" y="-49" type="line" smooth="yes"/>
      <point x="288" y="-49"/>
      <point x="270" y="-27"/>
      <point x="270" y="14" type="curve" smooth="yes"/>
      <point x="270" y="173" type="line" smooth="yes"/>
      <point x="270" y="251"/>
      <point x="235" y="286"/>
      <point x="167" y="292" type="curve"/>
      <point x="167" y="306" type="line"/>
      <point x="235" y="312"/>
      <point x="270" y="347"/>
      <point x="270" y="425" type="curve" smooth="yes"/>
      <point x="270" y="580" type="line" smooth="yes"/>
      <point x="270" y="621"/>
      <point x="288" y="643"/>
      <point x="332" y="643" type="curve" smooth="yes"/>
      <point x="357" y="643" type="line"/>
      <point x="357" y="776" type="line"/>
      <point x="332" y="776" type="line" smooth="yes"/>
      <point x="201" y="776"/>
      <point x="118" y="717"/>
      <point x="118" y="581" type="curve" smooth="yes"/>
      <point x="118" y="431" type="line" smooth="yes"/>
      <point x="118" y="390"/>
      <point x="92" y="370"/>
      <point x="43" y="370" type="curve"/>
      <point x="43" y="228" type="line"/>
      <point x="92" y="228"/>
      <point x="118" y="208"/>
      <point x="118" y="167" type="curve" smooth="yes"/>
      <point x="118" y="13" type="line" smooth="yes"/>
      <point x="118" y="-123"/>
      <point x="201" y="-182"/>
    </contour>
  </outline>
</glyph>
<glyph name="cent" format="2">
  <advance width="611"/>
  <unicode hex="00A2"/>
  <outline>
    <contour>
      <point x="316" y="93" type="curve" smooth="yes"/>
      <point x="467" y="93"/>
      <point x="570" y="178"/>
      <point x="579" y="313" type="curve"/>
      <point x="427" y="313" type="line"/>
      <point x="420" y="261"/>
      <point x="378" y="225"/>
      <point x="316" y="225" type="curve" smooth="yes"/>
      <point x="235" y="225"/>
      <point x="194" y="280"/>
      <point x="194" y="364" type="curve" smooth="yes"/>
      <point x="194" y="451"/>
      <point x="240" y="505"/>
      <point x="316" y="505" type="curve" smooth="yes"/>
      <point x="376" y="505"/>
      <point x="417" y="469"/>
      <point x="423" y="422" type="curve"/>
      <point x="574" y="422" type="line"/>
      <point x="564" y="556"/>
      <point x="464" y="638"/>
      <point x="316" y="638" type="curve" smooth="yes"/>
      <point x="140" y="638"/>
      <point x="39" y="520"/>
      <point x="39" y="374" type="curve" smooth="yes"/>
      <point x="39" y="354" type="line" smooth="yes"/>
      <point x="39" y="214"/>
      <point x="137" y="93"/>
    </contour>
    <contour>
      <point x="253" y="0" type="line"/>
      <point x="384" y="0" type="line"/>
      <point x="384" y="146" type="line"/>
      <point x="253" y="146" type="line"/>
    </contour>
    <contour>
      <point x="253" y="577" type="line"/>
      <point x="384" y="577" type="line"/>
      <point x="384" y="723" type="line"/>
      <point x="253" y="723" type="line"/>
    </contour>
  </outline>
</glyph>
<glyph name="copyright" format="2">
  <advance width="713"/>
  <unicode hex="00A9"/>
  <outline>
    <contour>
      <point x="357" y="109" type="curve" smooth="yes"/>
      <point x="576" y="109"/>
      <point x="671" y="278"/>
      <point x="671" y="418" type="curve" smooth="yes"/>
      <point x="671" y="436" type="line" smooth="yes"/>
      <point x="671" y="581"/>
      <point x="572" y="743"/>
      <point x="357" y="743" type="curve" smooth="yes"/>
      <point x="142" y="743"/>
      <point x="43" y="581"/>
      <point x="43" y="436" type="curve" smooth="yes"/>
      <point x="43" y="418" type="line" smooth="yes"/>
      <point x="43" y="278"/>
      <point x="138" y="109"/>
    </contour>
    <contour>
      <point x="357" y="163" type="curve" smooth="yes"/>
      <point x="200" y="163"/>
      <point x="103" y="286"/>
      <point x="103" y="426" type="curve" smooth="yes"/>
      <point x="103" y="571"/>
      <point x="200" y="689"/>
      <point x="357" y="689" type="curve" smooth="yes"/>
      <point x="514" y="689"/>
      <point x="611" y="571"/>
      <point x="611" y="426" type="curve" smooth="yes"/>
      <point x="611" y="286"/>
      <point x="514" y="163"/>
    </contour>
    <contour>
      <point x="359" y="237" type="curve" smooth="yes"/>
      <point x="457" y="237"/>
      <point x="529" y="297"/>
      <point x="534" y="387" type="curve"/>
      <point x="427" y="387" type="line"/>
      <point x="422" y="351"/>
      <point x="401" y="329"/>
      <point x="362" y="329" type="curve" smooth="yes"/>
      <point x="307" y="329"/>
      <point x="289" y="365"/>
      <point x="289" y="424" type="curve" smooth="yes"/>
      <point x="289" y="484"/>
      <point x="310" y="521"/>
      <point x="362" y="521" type="curve" smooth="yes"/>
      <point x="401" y="521"/>
      <point x="421" y="497"/>
      <point x="424" y="465" type="curve"/>
      <point x="531" y="465" type="line"/>
      <point x="526" y="553"/>
      <point x="457" y="612"/>
      <point x="359" y="612" type="curve" smooth="yes"/>
      <point x="241" y="612"/>
      <point x="178" y="529"/>
      <point x="178" y="430" type="curve" smooth="yes"/>
      <point x="178" y="417" type="line" smooth="yes"/>
      <point x="178" y="323"/>
      <point x="237" y="237"/>
    </contour>
  </outline>
</glyph>
<glyph name="registered" format="2">
  <advance width="678"/>
  <unicode hex="00AE"/>
  <outline>
    <contour>
      <point x="339" y="176" type="curve" smooth="yes"/>
      <point x="526" y="176"/>
      <point x="624" y="322"/>
      <point x="624" y="453" type="curve" smooth="yes"/>
      <point x="624" y="469" type="line" smooth="yes"/>
      <point x="624" y="604"/>
      <point x="522" y="744"/>
      <point x="339" y="744" type="curve" smooth="yes"/>
      <point x="156" y="744"/>
      <point x="54" y="604"/>
      <point x="54" y="469" type="curve" smooth="yes"/>
      <point x="54" y="453" type="line" smooth="yes"/>
      <point x="54" y="322"/>
      <point x="152" y="176"/>
    </contour>
    <contour>
      <point x="339" y="228" type="curve" smooth="yes"/>
      <point x="201" y="228"/>
      <point x="110" y="332"/>
      <point x="110" y="460" type="curve" smooth="yes"/>
      <point x="110" y="592"/>
      <point x="201" y="692"/>
      <point x="339" y="692" type="curve" smooth="yes"/>
      <point x="477" y="692"/>
      <point x="568" y="592"/>
      <point x="568" y="460" type="curve" smooth="yes"/>
      <point x="568" y="332"/>
      <point x="477" y="228"/>
    </contour>
    <contour>
      <point x="218" y="309" type="line"/>
      <point x="300" y="309" type="line"/>
      <point x="300" y="624" type="line"/>
      <point x="218" y="624" type="line"/>
    </contour>
    <contour>
      <point x="401" y="309" type="line"/>
      <point x="492" y="309" type="line"/>
      <point x="413" y="431" type="line"/>
      <point x="327" y="431" type="line"/>
    </contour>
    <contour>
      <point x="257" y="400" type="line"/>
      <point x="340" y="400" type="line" smooth="yes"/>
      <point x="428" y="400"/>
      <point x="476" y="439"/>
      <point x="476" y="512" type="curve" smooth="yes"/>
      <point x="476" y="585"/>
      <point x="428" y="624"/>
      <point x="340" y="624" type="curve" smooth="yes"/>
      <point x="257" y="624" type="line"/>
      <point x="257" y="554" type="line"/>
      <point x="343" y="554" type="line" smooth="yes"/>
      <point x="378" y="554"/>
      <point x="393" y="539"/>
      <point x="393" y="512" type="curve" smooth="yes"/>
      <point x="393" y="485"/>
      <point x="378" y="469"/>
      <point x="343" y="469" type="curve" smooth="yes"/>
      <point x="257" y="469" type="line"/>
    </contour>
  </outline>
</glyph>
<glyph name="degree" format="2">
  <advance width="424"/>
  <unicode hex="00B0"/>
  <outline>
    <contour>
      <point x="212" y="356" type="curve" smooth="yes"/>
      <point x="326" y="356"/>
      <point x="403" y="440"/>
      <point x="403" y="544" type="curve" smooth="yes"/>
      <point x="403" y="646"/>
      <point x="326" y="730"/>
      <point x="212" y="730" type="curve" smooth="yes"/>
      <point x="98" y="730"/>
      <point x="21" y="646"/>
      <point x="21" y="544" type="curve" smooth="yes"/>
      <point x="21" y="440"/>
      <point x="98" y="356"/>
    </contour>
    <contour>
      <point x="212" y="466" type="curve" smooth="yes"/>
      <point x="165" y="466"/>
      <point x="137" y="500"/>
      <point x="137" y="544" type="curve" smooth="yes"/>
      <point x="137" y="586"/>
      <point x="165" y="620"/>
      <point x="212" y="620" type="curve" smooth="yes"/>
      <point x="259" y="620"/>
      <point x="287" y="586"/>
      <point x="287" y="544" type="curve" smooth="yes"/>
      <point x="287" y="500"/>
      <point x="259" y="466"/>
    </contour>
  </outline>
</glyph>
<glyph name="paragraph" format="2">
  <advance width="641"/>
  <unicode hex="00B6"/>
  <outline>
    <contour>
      <point x="202" y="371" type="curve" smooth="yes"/>
      <point x="308" y="371" type="line"/>
      <point x="308" y="734" type="line"/>
      <point x="202" y="734" type="line" smooth="yes"/>
      <point x="68" y="734"/>
      <point x="9" y="664"/>
      <point x="9" y="558" type="curve" smooth="yes"/>
      <point x="9" y="547" type="line" smooth="yes"/>
      <point x="9" y="441"/>
      <point x="68" y="371"/>
    </contour>
    <contour>
      <point x="272" y="0" type="line"/>
      <point x="384" y="0" type="line"/>
      <point x="384" y="734" type="line"/>
      <point x="272" y="734" type="line"/>
    </contour>
    <contour>
      <point x="450" y="0" type="line"/>
      <point x="560" y="0" type="line"/>
      <point x="560" y="734" type="line"/>
      <point x="450" y="734" type="line"/>
    </contour>
  </outline>
</glyph>
<glyph name="AE" format="2">
  <advance width="982"/>
  <unicode hex="00C6"/>
  <outline>
    <contour>
      <point x="-3" y="0" type="line"/>
      <point x="161" y="0" type="line"/>
      <point x="404" y="617" type="line"/>
      <point x="354" y="596" type="line"/>
      <point x="495" y="596" type="line"/>
      <point x="495" y="730" type="line"/>
      <point x="285" y="730" type="line"/>
    </contour>
    <contour>
      <point x="207" y="196" type="line"/>
      <point x="495" y="196" type="line"/>
      <point x="495" y="333" type="line"/>
      <point x="258" y="333" type="line"/>
    </contour>
    <contour>
      <point x="474" y="0" type="line"/>
      <point x="631" y="0" type="line"/>
      <point x="631" y="730" type="line"/>
      <point x="474" y="730" type="line"/>
    </contour>
    <contour>
      <point x="610" y="0" type="line"/>
      <point x="929" y="0" type="line"/>
      <point x="929" y="136" type="line"/>
      <point x="610" y="136" type="line"/>
    </contour>
    <contour>
      <point x="610" y="303" type="line"/>
      <point x="907" y="303" type="line"/>
      <point x="907" y="439" type="line"/>
      <point x="610" y="439" type="line"/>
    </contour>
    <contour>
      <point x="610" y="594" type="line"/>
      <point x="922" y="594" type="line"/>
      <point x="922" y="730" type="line"/>
      <point x="610" y="730" type="line"/>
    </contour>
  </outline>
</glyph>
<glyph name="Thorn" format="2">
  <advance width="652"/>
  <unicode hex="00DE"/>
  <outline>
    <contour>
      <point x="226" y="113" type="line"/>
      <point x="341" y="113" type="line" smooth="yes"/>
      <point x="522" y="113"/>
      <point x="630" y="210"/>
      <point x="630" y="363" type="curve" smooth="yes"/>
      <point x="630" y="379" type="line" smooth="yes"/>
      <point x="630" y="532"/>
      <point x="522" y="629"/>
      <point x="341" y="629" type="curve" smooth="yes"/>
      <point x="226" y="629" type="line"/>
      <point x="226" y="488" type="line"/>
      <point x="348" y="488" type="line" smooth="yes"/>
      <point x="423" y="488"/>
      <point x="465" y="443"/>
      <point x="465" y="371" type="curve" smooth="yes"/>
      <point x="465" y="299"/>
      <point x="423" y="255"/>
      <point x="348" y="255" type="curve" smooth="yes"/>
      <point x="226" y="255" type="line"/>
    </contour>
    <contour>
      <point x="82" y="0" type="line"/>
      <point x="246" y="0" type="line"/>
      <point x="246" y="730" type="line"/>
      <point x="82" y="730" type="line"/>
    </contour>
  </outline>
</glyph>
<glyph name="ae" format="2">
  <advance width="957"/>
  <unicode hex="00E6"/>
  <guideline x="435" y="160" angle="0.0"/>
  <outline>
    <contour>
      <point x="659" y="-19" type="curve" smooth="yes"/>
      <point x="793" y="-19"/>
      <point x="890" y="57"/>
      <point x="914" y="170" type="curve"/>
      <point x="767" y="170" type="line"/>
      <point x="755" y="135"/>
      <point x="715" y="111"/>
      <point x="657" y="111" type="curve" smooth="yes"/>
      <point x="562" y="111"/>
      <point x="521" y="174"/>
      <point x="521" y="271" type="curve" smooth="yes"/>
      <point x="521" y="376"/>
      <point x="568" y="434"/>
      <point x="651" y="434" type="curve" smooth="yes"/>
      <point x="732" y="434"/>
      <point x="775" y="378"/>
      <point x="775" y="280" type="curve"/>
      <point x="828" y="321" type="line"/>
      <point x="505" y="321" type="line"/>
      <point x="505" y="233" type="line"/>
      <point x="924" y="233" type="line"/>
      <point x="924" y="284" type="line" smooth="yes"/>
      <point x="924" y="431"/>
      <point x="828" y="565"/>
      <point x="654" y="565" type="curve" smooth="yes"/>
      <point x="500" y="565"/>
      <point x="427" y="460"/>
      <point x="406" y="341" type="curve"/>
      <point x="507" y="341" type="line"/>
      <point x="504" y="483"/>
      <point x="435" y="556"/>
      <point x="270" y="556" type="curve" smooth="yes"/>
      <point x="213" y="556"/>
      <point x="138" y="552"/>
      <point x="92" y="548" type="curve"/>
      <point x="92" y="414" type="line"/>
      <point x="153" y="417"/>
      <point x="248" y="421"/>
      <point x="293" y="421" type="curve" smooth="yes"/>
      <point x="351" y="421"/>
      <point x="377" y="393"/>
      <point x="377" y="337" type="curve" smooth="yes"/>
      <point x="377" y="205" type="line" smooth="yes"/>
      <point x="376" y="122"/>
      <point x="329" y="95"/>
      <point x="277" y="95" type="curve" smooth="yes"/>
      <point x="220" y="95"/>
      <point x="189" y="126"/>
      <point x="189" y="170" type="curve" smooth="yes"/>
      <point x="189" y="216"/>
      <point x="221" y="247"/>
      <point x="277" y="247" type="curve" smooth="yes"/>
      <point x="395" y="247" type="line"/>
      <point x="395" y="335" type="line"/>
      <point x="278" y="335" type="line" smooth="yes"/>
      <point x="131" y="335"/>
      <point x="31" y="282"/>
      <point x="31" y="161" type="curve" smooth="yes"/>
      <point x="31" y="50"/>
      <point x="112" y="-15"/>
      <point x="234" y="-15" type="curve" smooth="yes"/>
      <point x="353" y="-15"/>
      <point x="443" y="48"/>
      <point x="453" y="164" type="curve"/>
      <point x="407" y="164" type="line"/>
      <point x="436" y="68"/>
      <point x="513" y="-19"/>
    </contour>
  </outline>
</glyph>
<glyph name="Lslash" format="2">
  <advance width="557"/>
  <unicode hex="0141"/>
  <guideline x="87" y="257" angle="210.0897"/>
  <anchor x="307" y="0" name="bottom"/>
  <anchor x="164" y="365" name="center"/>
  <anchor x="164" y="730" name="top"/>
  <anchor x="276" y="541" name="topright"/>
  <outline>
    <contour>
      <point x="167" y="282" type="line"/>
      <point x="392" y="413" type="line"/>
      <point x="392" y="543" type="line"/>
      <point x="167" y="412" type="line"/>
    </contour>
    <contour>
      <point x="21" y="202" type="line"/>
      <point x="137" y="269" type="line"/>
      <point x="137" y="399" type="line"/>
      <point x="21" y="332" type="line"/>
    </contour>
    <component base="L"/>
  </outline>
</glyph>
<glyph name="lslash" format="2">
  <advance width="314"/>
  <unicode hex="0142"/>
  <anchor x="160" y="0" name="bottom"/>
  <anchor x="160" y="480" name="center"/>
  <anchor x="133" y="730" name="top"/>
  <anchor x="228" y="534" name="topright"/>
  <outline>
    <contour>
      <point x="12" y="192" type="line"/>
      <point x="132" y="259" type="line"/>
      <point x="132" y="375" type="line"/>
      <point x="12" y="309" type="line"/>
    </contour>
    <contour>
      <point x="188" y="287" type="line"/>
      <point x="306" y="351" type="line"/>
      <point x="306" y="468" type="line"/>
      <point x="188" y="403" type="line"/>
    </contour>
    <component base="l"/>
  </outline>
</glyph>
<glyph name="Tbar" format="2">
  <advance width="618"/>
  <unicode hex="0166"/>
  <anchor x="309" y="0" name="bottom"/>
  <anchor x="309" y="365" name="center"/>
  <anchor x="309" y="730" name="top"/>
  <outline>
    <contour>
      <point x="83" y="295" type="line"/>
      <point x="535" y="295" type="line"/>
      <point x="535" y="407" type="line"/>
      <point x="83" y="407" type="line"/>
    </contour>
    <component base="T"/>
  </outline>
</glyph>
<glyph name="acutecomb" format="2">
  <unicode hex="0301"/>
  <anchor x="79" y="547" name="_top"/>
  <anchor x="167" y="820" name="top"/>
  <outline>
    <contour>
      <point x="0" y="612" type="line"/>
      <point x="139" y="612" type="line"/>
      <point x="254" y="820" type="line"/>
      <point x="89" y="820" type="line"/>
    </contour>
  </outline>
</glyph>
<glyph name="circumflexcomb" format="2">
  <unicode hex="0302"/>
  <anchor x="200" y="547" name="_top"/>
  <anchor x="202" y="820" name="top"/>
  <outline>
    <contour>
      <point x="0" y="612" type="line"/>
      <point x="132" y="612" type="line"/>
      <point x="193" y="746" type="line"/>
      <point x="205" y="746" type="line"/>
      <point x="267" y="612" type="line"/>
      <point x="402" y="612" type="line"/>
      <point x="298" y="820" type="line"/>
      <point x="103" y="820" type="line"/>
    </contour>
  </outline>
</glyph>
<glyph name="brevecomb" format="2">
  <unicode hex="0306"/>
  <anchor x="183" y="547" name="_top"/>
  <anchor x="185" y="820" name="top"/>
  <outline>
    <contour>
      <point x="184" y="606" type="curve" smooth="yes"/>
      <point x="299" y="606"/>
      <point x="360" y="676"/>
      <point x="364" y="820" type="curve"/>
      <point x="251" y="820" type="line"/>
      <point x="249" y="746"/>
      <point x="225" y="718"/>
      <point x="184" y="718" type="curve" smooth="yes"/>
      <point x="142" y="718"/>
      <point x="121" y="746"/>
      <point x="118" y="820" type="curve"/>
      <point x="1" y="820" type="line"/>
      <point x="5" y="676"/>
      <point x="69" y="606"/>
    </contour>
  </outline>
</glyph>
<glyph name="ringcomb" format="2">
  <unicode hex="030A"/>
  <anchor x="128" y="547" name="_top"/>
  <anchor x="128" y="820" name="top"/>
  <outline>
    <contour>
      <point x="128" y="601" type="curve" smooth="yes"/>
      <point x="204" y="601"/>
      <point x="255" y="652"/>
      <point x="255" y="723" type="curve" smooth="yes"/>
      <point x="255" y="794"/>
      <point x="204" y="845"/>
      <point x="128" y="845" type="curve" smooth="yes"/>
      <point x="52" y="845"/>
      <point x="0" y="794"/>
      <point x="0" y="723" type="curve" smooth="yes"/>
      <point x="0" y="652"/>
      <point x="52" y="601"/>
    </contour>
    <contour>
      <point x="128" y="678" type="curve" smooth="yes"/>
      <point x="100" y="678"/>
      <point x="83" y="697"/>
      <point x="83" y="723" type="curve" smooth="yes"/>
      <point x="83" y="749"/>
      <point x="100" y="768"/>
      <point x="128" y="768" type="curve" smooth="yes"/>
      <point x="155" y="768"/>
      <point x="172" y="749"/>
      <point x="172" y="723" type="curve" smooth="yes"/>
      <point x="172" y="697"/>
      <point x="155" y="678"/>
    </contour>
  </outline>
</glyph>
<glyph name="caroncomb" format="2">
  <unicode hex="030C"/>
  <anchor x="207" y="547" name="_top"/>
  <anchor x="202" y="820" name="top"/>
  <outline>
    <contour>
      <point x="103" y="612" type="line"/>
      <point x="300" y="612" type="line"/>
      <point x="396" y="820" type="line"/>
      <point x="265" y="820" type="line"/>
      <point x="210" y="687" type="line"/>
      <point x="197" y="687" type="line"/>
      <point x="135" y="820" type="line"/>
      <point x="0" y="820" type="line"/>
    </contour>
  </outline>
</glyph>
<glyph name="ogonekcomb" format="2">
  <unicode hex="0328"/>
  <anchor x="233" y="10" name="_ogonek"/>
  <outline>
    <contour>
      <point x="192" y="-242" type="curve" smooth="yes"/>
      <point x="213" y="-242"/>
      <point x="241" y="-239"/>
      <point x="255" y="-234" type="curve"/>
      <point x="255" y="-122" type="line"/>
      <point x="244" y="-126"/>
      <point x="228" y="-129"/>
      <point x="211" y="-129" type="curve" smooth="yes"/>
      <point x="185" y="-129"/>
      <point x="169" y="-117"/>
      <point x="169" y="-94" type="curve" smooth="yes"/>
      <point x="169" y="-73"/>
      <point x="181" y="-55"/>
      <point x="205" y="-33" type="curve" smooth="yes"/>
      <point x="236" y="0" type="line"/>
      <point x="170" y="70" type="line"/>
      <point x="138" y="39" type="line" smooth="yes"/>
      <point x="83" y="-15"/>
      <point x="55" y="-57"/>
      <point x="55" y="-118" type="curve" smooth="yes"/>
      <point x="55" y="-195"/>
      <point x="109" y="-242"/>
    </contour>
  </outline>
</glyph>
<glyph name="endash" format="2">
  <advance width="525"/>
  <unicode hex="2013"/>
  <outline>
    <contour>
      <point x="18" y="221" type="line"/>
      <point x="507" y="221" type="line"/>
      <point x="507" y="344" type="line"/>
      <point x="18" y="344" type="line"/>
    </contour>
  </outline>
</glyph>
<glyph name="emdash" format="2">
  <advance width="913"/>
  <unicode hex="2014"/>
  <outline>
    <contour>
      <point x="18" y="221" type="line"/>
      <point x="895" y="221" type="line"/>
      <point x="895" y="344" type="line"/>
      <point x="18" y="344" type="line"/>
    </contour>
  </outline>
</glyph>
<glyph name="daggerdbl" format="2">
  <advance width="588"/>
  <unicode hex="2021"/>
  <outline>
    <contour>
      <point x="39" y="421" type="line"/>
      <point x="549" y="421" type="line"/>
      <point x="549" y="543" type="line"/>
      <point x="39" y="543" type="line"/>
    </contour>
    <contour>
      <point x="220" y="-200" type="line"/>
      <point x="368" y="-200" type="line"/>
      <point x="368" y="21" type="line"/>
      <point x="220" y="21" type="line"/>
    </contour>
    <contour>
      <point x="39" y="-13" type="line"/>
      <point x="549" y="-13" type="line"/>
      <point x="549" y="109" type="line"/>
      <point x="39" y="109" type="line"/>
    </contour>
    <contour>
      <point x="220" y="174" type="line"/>
      <point x="368" y="174" type="line"/>
      <point x="368" y="356" type="line"/>
      <point x="220" y="356" type="line"/>
    </contour>
    <contour>
      <point x="220" y="509" type="line"/>
      <point x="368" y="509" type="line"/>
      <point x="368" y="730" type="line"/>
      <point x="220" y="730" type="line"/>
    </contour>
  </outline>
</glyph>
<glyph name="bullet" format="2">
  <advance width="435"/>
  <unicode hex="2022"/>
  <outline>
    <contour>
      <point x="83" y="149" type="line"/>
      <point x="352" y="149" type="line"/>
      <point x="352" y="429" type="line"/>
      <point x="83" y="429" type="line"/>
    </contour>
  </outline>
</glyph>
<glyph name="perthousand" format="2">
  <advance width="1282"/>
  <unicode hex="2030"/>
  <outline>
    <contour>
      <point x="247" y="0" type="line"/>
      <point x="381" y="0" type="line"/>
      <point x="647" y="730" type="line"/>
      <point x="513" y="730" type="line"/>
    </contour>
    <contour>
      <point x="197" y="329" type="curve" smooth="yes"/>
      <point x="316" y="329"/>
      <point x="374" y="416"/>
      <point x="374" y="525" type="curve" smooth="yes"/>
      <point x="374" y="551" type="line" smooth="yes"/>
      <point x="374" y="665"/>
      <point x="312" y="746"/>
      <point x="197" y="746" type="curve" smooth="yes"/>
      <point x="82" y="746"/>
      <point x="20" y="665"/>
      <point x="20" y="551" type="curve" smooth="yes"/>
      <point x="20" y="525" type="line" smooth="yes"/>
      <point x="20" y="416"/>
      <point x="78" y="329"/>
    </contour>
    <contour>
      <point x="197" y="435" type="curve" smooth="yes"/>
      <point x="156" y="435"/>
      <point x="137" y="462"/>
      <point x="137" y="538" type="curve" smooth="yes"/>
      <point x="137" y="616"/>
      <point x="157" y="640"/>
      <point x="197" y="640" type="curve" smooth="yes"/>
      <point x="237" y="640"/>
      <point x="257" y="616"/>
      <point x="257" y="537" type="curve" smooth="yes"/>
      <point x="257" y="462"/>
      <point x="238" y="435"/>
    </contour>
    <contour>
      <point x="693" y="-17" type="curve" smooth="yes"/>
      <point x="813" y="-17"/>
      <point x="870" y="70"/>
      <point x="870" y="178" type="curve" smooth="yes"/>
      <point x="870" y="204" type="line" smooth="yes"/>
      <point x="870" y="318"/>
      <point x="809" y="399"/>
      <point x="693" y="399" type="curve" smooth="yes"/>
      <point x="578" y="399"/>
      <point x="517" y="318"/>
      <point x="517" y="204" type="curve" smooth="yes"/>
      <point x="517" y="178" type="line" smooth="yes"/>
      <point x="517" y="70"/>
      <point x="574" y="-17"/>
    </contour>
    <contour>
      <point x="693" y="89" type="curve" smooth="yes"/>
      <point x="652" y="89"/>
      <point x="633" y="116"/>
      <point x="633" y="191" type="curve" smooth="yes"/>
      <point x="633" y="269"/>
      <point x="653" y="293"/>
      <point x="693" y="293" type="curve" smooth="yes"/>
      <point x="733" y="293"/>
      <point x="754" y="269"/>
      <point x="754" y="190" type="curve" smooth="yes"/>
      <point x="754" y="116"/>
      <point x="734" y="89"/>
    </contour>
    <contour>
      <point x="1085" y="-17" type="curve" smooth="yes"/>
      <point x="1204" y="-17"/>
      <point x="1262" y="70"/>
      <point x="1262" y="178" type="curve" smooth="yes"/>
      <point x="1262" y="204" type="line" smooth="yes"/>
      <point x="1262" y="318"/>
      <point x="1200" y="399"/>
      <point x="1085" y="399" type="curve" smooth="yes"/>
      <point x="969" y="399"/>
      <point x="908" y="318"/>
      <point x="908" y="204" type="curve" smooth="yes"/>
      <point x="908" y="178" type="line" smooth="yes"/>
      <point x="908" y="70"/>
      <point x="965" y="-17"/>
    </contour>
    <contour>
      <point x="1085" y="89" type="curve" smooth="yes"/>
      <point x="1044" y="89"/>
      <point x="1024" y="116"/>
      <point x="1024" y="191" type="curve" smooth="yes"/>
      <point x="1024" y="269"/>
      <point x="1045" y="293"/>
      <point x="1085" y="293" type="curve" smooth="yes"/>
      <point x="1125" y="293"/>
      <point x="1145" y="269"/>
      <point x="1145" y="190" type="curve" smooth="yes"/>
      <point x="1145" y="116"/>
      <point x="1126" y="89"/>
    </contour>
  </outline>
</glyph>
<glyph name="minus" format="2">
  <advance width="596"/>
  <unicode hex="2212"/>
  <outline>
    <contour>
      <point x="50" y="279" type="line"/>
      <point x="546" y="279" type="line"/>
      <point x="546" y="409" type="line"/>
      <point x="50" y="409" type="line"/>
    </contour>
  </outline>
</glyph>
<glyph name="greaterequal" format="2">
  <advance width="596"/>
  <unicode hex="2265"/>
  <outline>
    <contour>
      <point x="70" y="25" type="line"/>
      <point x="526" y="25" type="line"/>
      <point x="526" y="150" type="line"/>
      <point x="70" y="150" type="line"/>
    </contour>
    <contour>
      <point x="70" y="204" type="line"/>
      <point x="526" y="327" type="line"/>
      <point x="526" y="441" type="line"/>
      <point x="70" y="332" type="line"/>
    </contour>
    <contour>
      <point x="526" y="393" type="line"/>
      <point x="526" y="509" type="line"/>
      <point x="70" y="632" type="line"/>
      <point x="70" y="501" type="line"/>
    </contour>
    <contour>
      <point x="401" y="379" type="line"/>
      <point x="431" y="379" type="line"/>
      <point x="431" y="461" type="line"/>
      <point x="401" y="461" type="line"/>
    </contour>
  </outline>
</glyph>
<glyph name="fi" format="2">
  <advance width="691"/>
  <unicode hex="FB01"/>
  <outline>
    <contour>
      <point x="84" y="0" type="line"/>
      <point x="232" y="0" type="line"/>
      <point x="232" y="569" type="line" smooth="yes"/>
      <point x="232" y="605"/>
      <point x="253" y="626"/>
      <point x="289" y="626" type="curve" smooth="yes"/>
      <point x="350" y="626" type="line"/>
      <point x="350" y="746" type="line"/>
      <point x="296" y="746" type="line" smooth="yes"/>
      <point x="156" y="746"/>
      <point x="84" y="685"/>
      <point x="84" y="559" type="curve" smooth="yes"/>
    </contour>
    <contour>
      <point x="20" y="426" type="line"/>
      <point x="348" y="426" type="line"/>
      <point x="348" y="543" type="line"/>
      <point x="20" y="543" type="line"/>
    </contour>
    <contour>
      <point x="456" y="0" type="line"/>
      <point x="616" y="0" type="line"/>
      <point x="616" y="547" type="line"/>
      <point x="456" y="547" type="line"/>
    </contour>
    <contour>
      <point x="391" y="430" type="line"/>
      <point x="616" y="430" type="line"/>
      <point x="616" y="547" type="line"/>
      <point x="391" y="547" type="line"/>
    </contour>
    <contour>
      <point x="518" y="602" type="curve" smooth="yes"/>
      <point x="578" y="602"/>
      <point x="605" y="637"/>
      <point x="605" y="685" type="curve" smooth="yes"/>
      <point x="605" y="734"/>
      <point x="578" y="768"/>
      <point x="518" y="768" type="curve" smooth="yes"/>
      <point x="458" y="768"/>
      <point x="430" y="734"/>
      <point x="430" y="685" type="curve" smooth="yes"/>
      <point x="430" y="637"/>
      <point x="458" y="602"/>
    </contour>
  </outline>
</glyph>
<glyph name="R.salt" format="2">
  <advance width="739"/>
  <anchor x="380" y="0" name="bottom"/>
  <anchor x="358" y="730" name="top"/>
  <outline>
    <contour>
      <point x="82" y="0" type="line"/>
      <point x="246" y="0" type="line"/>
      <point x="246" y="735" type="line"/>
      <point x="82" y="735" type="line"/>
    </contour>
    <contour>
      <point x="518" y="0" type="line"/>
      <point x="699" y="0" type="line"/>
      <point x="553" y="312" type="line"/>
      <point x="375" y="312" type="line"/>
    </contour>
    <contour>
      <point x="226" y="268" type="line"/>
      <point x="407" y="268" type="line" smooth="yes"/>
      <point x="569" y="268"/>
      <point x="679" y="342"/>
      <point x="679" y="494" type="curve" smooth="yes"/>
      <point x="679" y="510" type="line" smooth="yes"/>
      <point x="679" y="662"/>
      <point x="568" y="735"/>
      <point x="407" y="735" type="curve" smooth="yes"/>
      <point x="226" y="735" type="line"/>
      <point x="226" y="594" type="line"/>
      <point x="416" y="594" type="line" smooth="yes"/>
      <point x="480" y="594"/>
      <point x="514" y="558"/>
      <point x="514" y="496" type="curve" smooth="yes"/>
      <point x="514" y="433"/>
      <point x="481" y="397"/>
      <point x="416" y="397" type="curve" smooth="yes"/>
      <point x="226" y="397" type="line"/>
    </contour>
  </outline>
</glyph>
<glyph name="acutecomb.case" format="2">
  <anchor x="86" y="730" name="_top"/>
  <anchor x="206" y="964" name="top"/>
  <outline>
    <contour>
      <point x="0" y="785" type="line"/>
      <point x="152" y="785" type="line"/>
      <point x="296" y="964" type="line"/>
      <point x="125" y="964" type="line"/>
    </contour>
  </outline>
</glyph>
<glyph name="asterisk.part" format="2">
  <advance width="211"/>
  <guideline x="0" y="470" angle="90.0"/>
  <guideline x="0" y="470" angle="44.99999999999999"/>
  <guideline x="0" y="470" angle="135.0"/>
  <outline>
    <contour>
      <point x="152" y="302" type="line"/>
      <point x="211" y="408" type="line"/>
      <point x="89" y="458" type="line"/>
      <point x="89" y="482" type="line"/>
      <point x="211" y="532" type="line"/>
      <point x="152" y="638" type="line"/>
      <point x="0" y="527" type="line"/>
      <point x="0" y="413" type="line"/>
    </contour>
  </outline>
</glyph>
<glyph name="bracketleft.case" format="2">
  <advance width="392"/>
  <outline>
    <contour>
      <point x="86" y="-118" type="line"/>
      <point x="239" y="-118" type="line"/>
      <point x="239" y="806" type="line"/>
      <point x="86" y="806" type="line"/>
    </contour>
    <contour>
      <point x="191" y="-118" type="line"/>
      <point x="350" y="-118" type="line"/>
      <point x="350" y="15" type="line"/>
      <point x="191" y="15" type="line"/>
    </contour>
    <contour>
      <point x="191" y="673" type="line"/>
      <point x="350" y="673" type="line"/>
      <point x="350" y="806" type="line"/>
      <point x="191" y="806" type="line"/>
    </contour>
  </outline>
</glyph>
<glyph name="cedillacomb.case" format="2">
  <anchor x="91" y="0" name="_bottom"/>
  <anchor x="90" y="-300" name="bottom"/>
  <outline>
    <contour>
      <point x="85" y="-276" type="curve" smooth="yes"/>
      <point x="189" y="-276"/>
      <point x="246" y="-220"/>
      <point x="246" y="-149" type="curve" smooth="yes"/>
      <point x="246" y="-79"/>
      <point x="187" y="-44"/>
      <point x="95" y="-44" type="curve" smooth="yes"/>
      <point x="81" y="-44" type="line"/>
      <point x="142" y="-86" type="line"/>
      <point x="142" y="13" type="line"/>
      <point x="40" y="13" type="line"/>
      <point x="40" y="-123" type="line"/>
      <point x="93" y="-123" type="line" smooth="yes"/>
      <point x="124" y="-123"/>
      <point x="139" y="-131"/>
      <point x="139" y="-146" type="curve" smooth="yes"/>
      <point x="139" y="-164"/>
      <point x="118" y="-174"/>
      <point x="79" y="-174" type="curve" smooth="yes"/>
      <point x="48" y="-174"/>
      <point x="20" y="-169"/>
      <point x="0" y="-162" type="curve"/>
      <point x="0" y="-264" type="line"/>
      <point x="18" y="-271"/>
      <point x="52" y="-276"/>
    </contour>
  </outline>
</glyph>
<glyph name="circumflexcomb.case" format="2">
  <anchor x="222" y="730" name="_top"/>
  <anchor x="222" y="964" name="top"/>
  <outline>
    <contour>
      <point x="0" y="785" type="line"/>
      <point x="143" y="785" type="line"/>
      <point x="213" y="888" type="line"/>
      <point x="231" y="888" type="line"/>
      <point x="304" y="785" type="line"/>
      <point x="450" y="785" type="line"/>
      <point x="318" y="964" type="line"/>
      <point x="129" y="964" type="line"/>
    </contour>
  </outline>
</glyph>
<glyph name="commaaccentcomb.case" format="2">
  <anchor x="80" y="0" name="_bottom"/>
  <anchor x="85" y="-300" name="bottom"/>
  <outline>
    <contour>
      <point x="7" y="-306" type="line"/>
      <point x="32" y="-306" type="line" smooth="yes"/>
      <point x="120" y="-306"/>
      <point x="178" y="-259"/>
      <point x="178" y="-167" type="curve" smooth="yes"/>
      <point x="178" y="-161" type="line" smooth="yes"/>
      <point x="178" y="-88"/>
      <point x="141" y="-46"/>
      <point x="82" y="-46" type="curve" smooth="yes"/>
      <point x="39" y="-46"/>
      <point x="1" y="-66"/>
      <point x="1" y="-116" type="curve" smooth="yes"/>
      <point x="1" y="-157"/>
      <point x="28" y="-180"/>
      <point x="64" y="-180" type="curve" smooth="yes"/>
      <point x="92" y="-180"/>
      <point x="110" y="-166"/>
      <point x="118" y="-150" type="curve"/>
      <point x="95" y="-146" type="line"/>
      <point x="95" y="-173" type="line" smooth="yes"/>
      <point x="95" y="-206"/>
      <point x="78" y="-229"/>
      <point x="34" y="-229" type="curve" smooth="yes"/>
      <point x="7" y="-229" type="line"/>
    </contour>
  </outline>
</glyph>
<glyph name="equal.tnum" format="2">
  <advance width="669"/>
  <outline>
    <contour>
      <point x="74" y="373" type="line"/>
      <point x="595" y="373" type="line"/>
      <point x="595" y="502" type="line"/>
      <point x="74" y="502" type="line"/>
    </contour>
    <contour>
      <point x="74" y="158" type="line"/>
      <point x="595" y="158" type="line"/>
      <point x="595" y="287" type="line"/>
      <point x="74" y="287" type="line"/>
    </contour>
  </outline>
</glyph>
<glyph name="f.salt" format="2">
  <advance width="395"/>
  <outline>
    <contour>
      <point x="84" y="0" type="line"/>
      <point x="232" y="0" type="line"/>
      <point x="232" y="601" type="line" smooth="yes"/>
      <point x="232" y="622"/>
      <point x="242" y="637"/>
      <point x="264" y="637" type="curve" smooth="yes"/>
      <point x="286" y="637"/>
      <point x="297" y="622"/>
      <point x="297" y="601" type="curve"/>
      <point x="423" y="601" type="line"/>
      <point x="423" y="694"/>
      <point x="357" y="750"/>
      <point x="255" y="750" type="curve" smooth="yes"/>
      <point x="149" y="750"/>
      <point x="84" y="691"/>
      <point x="84" y="594" type="curve" smooth="yes"/>
    </contour>
    <contour>
      <point x="20" y="419" type="line"/>
      <point x="377" y="419" type="line"/>
      <point x="377" y="536" type="line"/>
      <point x="20" y="536" type="line"/>
    </contour>
  </outline>
</glyph>
<glyph name="f_f_l.salt" format="2">
  <advance width="1086"/>
  <outline>
    <contour>
      <point x="84" y="0" type="line"/>
      <point x="232" y="0" type="line"/>
      <point x="232" y="595" type="line" smooth="yes"/>
      <point x="232" y="615"/>
      <point x="241" y="631"/>
      <point x="262" y="631" type="curve" smooth="yes"/>
      <point x="282" y="631"/>
      <point x="292" y="615"/>
      <point x="292" y="595" type="curve"/>
      <point x="411" y="595" type="line"/>
      <point x="411" y="687"/>
      <point x="348" y="744"/>
      <point x="249" y="744" type="curve" smooth="yes"/>
      <point x="146" y="744"/>
      <point x="84" y="683"/>
      <point x="84" y="588" type="curve" smooth="yes"/>
    </contour>
    <contour>
      <point x="455" y="0" type="line"/>
      <point x="603" y="0" type="line"/>
      <point x="603" y="601" type="line" smooth="yes"/>
      <point x="603" y="621"/>
      <point x="613" y="637"/>
      <point x="633" y="637" type="curve" smooth="yes"/>
      <point x="653" y="637"/>
      <point x="663" y="621"/>
      <point x="663" y="601" type="curve"/>
      <point x="782" y="601" type="line"/>
      <point x="782" y="693"/>
      <point x="720" y="750"/>
      <point x="620" y="750" type="curve" smooth="yes"/>
      <point x="515" y="750"/>
      <point x="455" y="689"/>
      <point x="455" y="594" type="curve" smooth="yes"/>
    </contour>
    <contour>
      <point x="998" y="-6" type="curve" smooth="yes"/>
      <point x="1060" y="-6" type="line"/>
      <point x="1060" y="131" type="line"/>
      <point x="1010" y="131" type="line" smooth="yes"/>
      <point x="987" y="131"/>
      <point x="976" y="143"/>
      <point x="976" y="166" type="curve" smooth="yes"/>
      <point x="976" y="730" type="line"/>
      <point x="816" y="730" type="line"/>
      <point x="816" y="167" type="line" smooth="yes"/>
      <point x="816" y="45"/>
      <point x="862" y="-6"/>
    </contour>
    <contour>
      <point x="20" y="419" type="line"/>
      <point x="739" y="419" type="line"/>
      <point x="739" y="536" type="line"/>
      <point x="20" y="536" type="line"/>
    </contour>
  </outline>
</glyph>
<glyph name="f_j" format="2">
  <advance width="691"/>
  <outline>
    <contour>
      <point x="84" y="0" type="line"/>
      <point x="232" y="0" type="line"/>
      <point x="232" y="569" type="line" smooth="yes"/>
      <point x="232" y="605"/>
      <point x="253" y="626"/>
      <point x="289" y="626" type="curve" smooth="yes"/>
      <point x="349" y="626" type="line"/>
      <point x="349" y="746" type="line"/>
      <point x="296" y="746" type="line" smooth="yes"/>
      <point x="156" y="746"/>
      <point x="84" y="685"/>
      <point x="84" y="559" type="curve" smooth="yes"/>
    </contour>
    <contour>
      <point x="357" y="-203" type="line"/>
      <point x="385" y="-203" type="line" smooth="yes"/>
      <point x="550" y="-203"/>
      <point x="621" y="-145"/>
      <point x="621" y="12" type="curve" smooth="yes"/>
      <point x="621" y="547" type="line"/>
      <point x="467" y="547" type="line"/>
      <point x="467" y="7" type="line" smooth="yes"/>
      <point x="467" y="-41"/>
      <point x="440" y="-68"/>
      <point x="391" y="-68" type="curve" smooth="yes"/>
      <point x="357" y="-68" type="line"/>
    </contour>
    <contour>
      <point x="20" y="426" type="line"/>
      <point x="356" y="426" type="line"/>
      <point x="356" y="543" type="line"/>
      <point x="20" y="543" type="line"/>
    </contour>
    <contour>
      <point x="400" y="430" type="line"/>
      <point x="621" y="430" type="line"/>
      <point x="621" y="547" type="line"/>
      <point x="400" y="547" type="line"/>
    </contour>
    <contour>
      <point x="524" y="604" type="curve" smooth="yes"/>
      <point x="584" y="604"/>
      <point x="611" y="639"/>
      <point x="611" y="687" type="curve" smooth="yes"/>
      <point x="611" y="736"/>
      <point x="584" y="770"/>
      <point x="524" y="770" type="curve" smooth="yes"/>
      <point x="464" y="770"/>
      <point x="436" y="736"/>
      <point x="436" y="687" type="curve" smooth="yes"/>
      <point x="436" y="639"/>
      <point x="464" y="604"/>
    </contour>
  </outline>
</glyph>
<glyph name="f_j.salt" format="2">
  <advance width="691"/>
  <outline>
    <contour>
      <point x="84" y="0" type="line"/>
      <point x="232" y="0" type="line"/>
      <point x="232" y="602" type="line" smooth="yes"/>
      <point x="232" y="621"/>
      <point x="242" y="637"/>
      <point x="262" y="637" type="curve" smooth="yes"/>
      <point x="283" y="637"/>
      <point x="293" y="621"/>
      <point x="293" y="602" type="curve"/>
      <point x="412" y="602" type="line"/>
      <point x="412" y="694"/>
      <point x="350" y="750"/>
      <point x="249" y="750" type="curve" smooth="yes"/>
      <point x="144" y="750"/>
      <point x="84" y="690"/>
      <point x="84" y="594" type="curve" smooth="yes"/>
    </contour>
    <contour>
      <point x="357" y="-203" type="line"/>
      <point x="385" y="-203" type="line" smooth="yes"/>
      <point x="550" y="-203"/>
      <point x="621" y="-145"/>
      <point x="621" y="12" type="curve" smooth="yes"/>
      <point x="621" y="547" type="line"/>
      <point x="467" y="547" type="line"/>
      <point x="467" y="7" type="line" smooth="yes"/>
      <point x="467" y="-41"/>
      <point x="440" y="-68"/>
      <point x="391" y="-68" type="curve" smooth="yes"/>
      <point x="357" y="-68" type="line"/>
    </contour>
    <contour>
      <point x="20" y="422" type="line"/>
      <point x="357" y="422" type="line"/>
      <point x="357" y="538" type="line"/>
      <point x="20" y="538" type="line"/>
    </contour>
    <contour>
      <point x="403" y="430" type="line"/>
      <point x="621" y="430" type="line"/>
      <point x="621" y="547" type="line"/>
      <point x="403" y="547" type="line"/>
    </contour>
    <contour>
      <point x="534" y="607" type="curve" smooth="yes"/>
      <point x="593" y="607"/>
      <point x="620" y="641"/>
      <point x="620" y="689" type="curve" smooth="yes"/>
      <point x="620" y="736"/>
      <point x="593" y="770"/>
      <point x="534" y="770" type="curve" smooth="yes"/>
      <point x="474" y="770"/>
      <point x="447" y="736"/>
      <point x="447" y="689" type="curve" smooth="yes"/>
      <point x="447" y="641"/>
      <point x="474" y="607"/>
    </contour>
  </outline>
</glyph>
<glyph name="four.tnum" format="2">
  <advance width="669"/>
  <outline>
    <contour>
      <point x="35" y="140" type="line"/>
      <point x="650" y="140" type="line"/>
      <point x="650" y="270" type="line"/>
      <point x="215" y="270" type="line"/>
      <point x="202" y="291" type="line"/>
      <point x="436" y="668" type="line"/>
      <point x="309" y="751" type="line"/>
      <point x="35" y="311" type="line"/>
    </contour>
    <contour>
      <point x="416" y="0" type="line"/>
      <point x="567" y="0" type="line"/>
      <point x="567" y="526" type="line"/>
      <point x="416" y="526" type="line"/>
    </contour>
  </outline>
</glyph>
<glyph name="hyphen.case" format="2">
  <advance width="508"/>
  <outline>
    <contour>
      <point x="44" y="300" type="line"/>
      <point x="465" y="300" type="line"/>
      <point x="465" y="443" type="line"/>
      <point x="44" y="443" type="line"/>
    </contour>
  </outline>
</glyph>
<glyph name="minus.tnum" format="2">
  <advance width="669"/>
  <outline>
    <contour>
      <point x="74" y="279" type="line"/>
      <point x="595" y="279" type="line"/>
      <point x="595" y="409" type="line"/>
      <point x="74" y="409" type="line"/>
    </contour>
  </outline>
</glyph>
<glyph name="ogonekcomb.case" format="2">
  <anchor x="235" y="10" name="_ogonek"/>
  <outline>
    <contour>
      <point x="191" y="-257" type="curve" smooth="yes"/>
      <point x="215" y="-257"/>
      <point x="242" y="-254"/>
      <point x="256" y="-249" type="curve"/>
      <point x="256" y="-133" type="line"/>
      <point x="245" y="-139"/>
      <point x="228" y="-142"/>
      <point x="211" y="-142" type="curve" smooth="yes"/>
      <point x="181" y="-142"/>
      <point x="163" y="-125"/>
      <point x="163" y="-99" type="curve" smooth="yes"/>
      <point x="163" y="-74"/>
      <point x="181" y="-49"/>
      <point x="206" y="-27" type="curve" smooth="yes"/>
      <point x="237" y="0" type="line"/>
      <point x="169" y="73" type="line"/>
      <point x="139" y="47" type="line" smooth="yes"/>
      <point x="77" y="-4"/>
      <point x="44" y="-56"/>
      <point x="44" y="-122" type="curve" smooth="yes"/>
      <point x="44" y="-202"/>
      <point x="106" y="-257"/>
    </contour>
  </outline>
</glyph>
<glyph name="one.tnum" format="2">
  <advance width="669"/>
  <outline>
    <contour>
      <point x="279" y="0" type="line"/>
      <point x="442" y="0" type="line"/>
      <point x="442" y="730" type="line"/>
      <point x="104" y="730" type="line"/>
      <point x="104" y="588" type="line"/>
      <point x="323" y="588" type="line"/>
      <point x="279" y="622" type="line"/>
    </contour>
    <contour>
      <point x="87" y="0" type="line"/>
      <point x="605" y="0" type="line"/>
      <point x="605" y="142" type="line"/>
      <point x="87" y="142" type="line"/>
    </contour>
  </outline>
</glyph>
<glyph name="ringcomb.case" format="2">
  <anchor x="130" y="730" name="_top"/>
  <anchor x="130" y="964" name="top"/>
  <outline>
    <contour>
      <point x="130" y="762" type="curve" smooth="yes"/>
      <point x="208" y="762"/>
      <point x="260" y="808"/>
      <point x="260" y="875" type="curve" smooth="yes"/>
      <point x="260" y="941"/>
      <point x="208" y="987"/>
      <point x="130" y="987" type="curve" smooth="yes"/>
      <point x="52" y="987"/>
      <point x="0" y="941"/>
      <point x="0" y="875" type="curve" smooth="yes"/>
      <point x="0" y="808"/>
      <point x="52" y="762"/>
    </contour>
    <contour>
      <point x="130" y="834" type="curve" smooth="yes"/>
      <point x="102" y="834"/>
      <point x="86" y="851"/>
      <point x="86" y="875" type="curve" smooth="yes"/>
      <point x="86" y="898"/>
      <point x="102" y="915"/>
      <point x="130" y="915" type="curve" smooth="yes"/>
      <point x="158" y="915"/>
      <point x="175" y="898"/>
      <point x="175" y="875" type="curve" smooth="yes"/>
      <point x="175" y="851"/>
      <point x="158" y="834"/>
    </contour>
  </outline>
</glyph>
<glyph name="seven.tnum" format="2">
  <advance width="669"/>
  <outline>
    <contour>
      <point x="170" y="0" type="line"/>
      <point x="343" y="0" type="line"/>
      <point x="622" y="626" type="line"/>
      <point x="622" y="730" type="line"/>
      <point x="55" y="730" type="line"/>
      <point x="55" y="596" type="line"/>
      <point x="425" y="596" type="line"/>
      <point x="436" y="581" type="line"/>
    </contour>
    <contour>
      <point x="55" y="469" type="line"/>
      <point x="187" y="469" type="line"/>
      <point x="187" y="730" type="line"/>
      <point x="55" y="730" type="line"/>
    </contour>
  </outline>
</glyph>
<glyph name="seven.tnum.salt" format="2">
  <advance width="669"/>
  <outline>
    <contour>
      <point x="214" y="0" type="line"/>
      <point x="376" y="0" type="line"/>
      <point x="376" y="140" type="line" smooth="yes"/>
      <point x="376" y="319"/>
      <point x="435" y="431"/>
      <point x="603" y="523" type="curve"/>
      <point x="603" y="730" type="line"/>
      <point x="56" y="730" type="line"/>
      <point x="56" y="590" type="line"/>
      <point x="441" y="590" type="line"/>
      <point x="448" y="569" type="line"/>
      <point x="298" y="486"/>
      <point x="214" y="340"/>
      <point x="214" y="140" type="curve" smooth="yes"/>
    </contour>
  </outline>
</glyph>
<glyph name="six.tnum" format="2">
  <advance width="669"/>
  <outline>
    <contour>
      <point x="350" y="-21" type="curve" smooth="yes"/>
      <point x="520" y="-21"/>
      <point x="634" y="83"/>
      <point x="634" y="241" type="curve" smooth="yes"/>
      <point x="634" y="389"/>
      <point x="542" y="486"/>
      <point x="392" y="486" type="curve" smooth="yes"/>
      <point x="263" y="486"/>
      <point x="172" y="407"/>
      <point x="170" y="262" type="curve"/>
      <point x="203" y="262" type="line"/>
      <point x="203" y="362" type="line" smooth="yes"/>
      <point x="203" y="516"/>
      <point x="247" y="599"/>
      <point x="406" y="599" type="curve" smooth="yes"/>
      <point x="457" y="599"/>
      <point x="506" y="595"/>
      <point x="549" y="591" type="curve"/>
      <point x="549" y="728" type="line"/>
      <point x="506" y="733"/>
      <point x="459" y="736"/>
      <point x="411" y="736" type="curve" smooth="yes"/>
      <point x="177" y="736"/>
      <point x="53" y="612"/>
      <point x="53" y="372" type="curve" smooth="yes"/>
      <point x="53" y="329" type="line" smooth="yes"/>
      <point x="53" y="135"/>
      <point x="139" y="-21"/>
    </contour>
    <contour>
      <point x="346" y="115" type="curve" smooth="yes"/>
      <point x="257" y="115"/>
      <point x="214" y="167"/>
      <point x="214" y="239" type="curve" smooth="yes"/>
      <point x="214" y="321"/>
      <point x="276" y="363"/>
      <point x="348" y="363" type="curve" smooth="yes"/>
      <point x="429" y="363"/>
      <point x="476" y="314"/>
      <point x="476" y="239" type="curve" smooth="yes"/>
      <point x="476" y="166"/>
      <point x="426" y="115"/>
    </contour>
  </outline>
</glyph>
<glyph name="sora.tnum" format="2">
  <advance width="669"/>
  <outline>
    <contour>
      <point x="138" y="-4" type="line"/>
      <point x="330" y="321" type="line"/>
      <point x="297" y="314" type="line"/>
      <point x="367" y="314" type="line"/>
      <point x="335" y="321" type="line"/>
      <point x="528" y="-4" type="line"/>
      <point x="652" y="67" type="line"/>
      <point x="419" y="449" type="line"/>
      <point x="251" y="449" type="line"/>
      <point x="17" y="67" type="line"/>
    </contour>
    <contour>
      <point x="38" y="449" type="line"/>
      <point x="632" y="449" type="line"/>
      <point x="632" y="544" type="line"/>
      <point x="38" y="544" type="line"/>
    </contour>
    <contour>
      <point x="259" y="524" type="line"/>
      <point x="410" y="524" type="line"/>
      <point x="410" y="674" type="line"/>
      <point x="259" y="674" type="line"/>
    </contour>
    <contour>
      <point x="38" y="635" type="line"/>
      <point x="632" y="635" type="line"/>
      <point x="632" y="730" type="line"/>
      <point x="38" y="730" type="line"/>
    </contour>
  </outline>
</glyph>
<glyph name="u.salt" format="2">
  <advance width="624"/>
  <anchor x="312" y="0" name="bottom"/>
  <anchor x="420" y="10" name="ogonek"/>
  <anchor x="312" y="534" name="top"/>
  <anchor x="597" y="534" name="topright"/>
  <outline>
    <contour>
      <point x="312" y="-19" type="curve" smooth="yes"/>
      <point x="474" y="-19"/>
      <point x="568" y="66"/>
      <point x="568" y="228" type="curve" smooth="yes"/>
      <point x="568" y="547" type="line"/>
      <point x="408" y="547" type="line"/>
      <point x="408" y="220" type="line" smooth="yes"/>
      <point x="408" y="161"/>
      <point x="370" y="124"/>
      <point x="312" y="124" type="curve" smooth="yes"/>
      <point x="255" y="124"/>
      <point x="216" y="161"/>
      <point x="216" y="220" type="curve" smooth="yes"/>
      <point x="216" y="547" type="line"/>
      <point x="56" y="547" type="line"/>
      <point x="56" y="228" type="line" smooth="yes"/>
      <point x="56" y="66"/>
      <point x="150" y="-19"/>
    </contour>
  </outline>
</glyph>
<glyph name="yen.tnum" format="2">
  <advance width="669"/>
  <outline>
    <contour>
      <point x="236" y="298" type="line"/>
      <point x="450" y="298" type="line"/>
      <point x="644" y="730" type="line"/>
      <point x="487" y="730" type="line"/>
      <point x="355" y="416" type="line"/>
      <point x="386" y="425" type="line"/>
      <point x="309" y="425" type="line"/>
      <point x="338" y="416" type="line"/>
      <point x="192" y="730" type="line"/>
      <point x="26" y="730" type="line"/>
    </contour>
    <contour>
      <point x="268" y="0" type="line"/>
      <point x="418" y="0" type="line"/>
      <point x="418" y="321" type="line"/>
      <point x="268" y="321" type="line"/>
    </contour>
    <contour>
      <point x="67" y="146" type="line"/>
      <point x="617" y="146" type="line"/>
      <point x="617" y="226" type="line"/>
      <point x="67" y="226" type="line"/>
    </contour>
    <contour>
      <point x="67" y="298" type="line"/>
      <point x="617" y="298" type="line"/>
      <point x="617" y="378" type="line"/>
      <point x="67" y="378" type="line"/>
    </contour>
  </outline>
</glyph>
